<svg width="16" height="16" viewBox="0 0 16 16" fill="none" xmlns="http://www.w3.org/2000/svg">
<path fill-rule="evenodd" clip-rule="evenodd" d="M12 1.33333C12.5304 1.33333 13.0391 1.54404 13.4142 1.91911C13.7893 2.29419 14 2.8029 14 3.33333V12.6667C14 13.1971 13.7893 13.7058 13.4142 14.0809C13.0391 14.4559 12.5304 14.6667 12 14.6667H8C7.46957 14.6667 6.96086 14.4559 6.58579 14.0809C6.21071 13.7058 6 13.1971 6 12.6667V3.33333C6 2.8029 6.21071 2.29419 6.58579 1.91911C6.96086 1.54404 7.46957 1.33333 8 1.33333H12ZM5.138 4.86199C5.01298 4.73701 4.84344 4.6668 4.66667 4.6668C4.48989 4.6668 4.32035 4.73701 4.19533 4.86199L1.52867 7.52866C1.40369 7.65368 1.33348 7.82322 1.33348 7.99999C1.33348 8.17677 1.40369 8.34631 1.52867 8.47133L4.19533 11.138C4.32107 11.2594 4.48947 11.3266 4.66427 11.3251C4.83907 11.3236 5.00627 11.2535 5.12988 11.1299C5.25348 11.0063 5.3236 10.8391 5.32512 10.6643C5.32664 10.4895 5.25944 10.3211 5.138 10.1953L3.60933 8.66666H9.33333C9.51014 8.66666 9.67971 8.59642 9.80474 8.4714C9.92976 8.34637 10 8.17681 10 7.99999C10 7.82318 9.92976 7.65361 9.80474 7.52859C9.67971 7.40357 9.51014 7.33333 9.33333 7.33333H3.60933L5.138 5.80466C5.26298 5.67964 5.33319 5.5101 5.33319 5.33333C5.33319 5.15655 5.26298 4.98701 5.138 4.86199Z" fill="black"/>
</svg>
